<svg t="1724594087179" class="icon" viewBox="0 0 1024 1024" version="1.1" xmlns="http://www.w3.org/2000/svg" p-id="29651" width="400" height="400"><path d="M285.5 309.5m-8 0a8 8 0 1 0 16 0 8 8 0 1 0-16 0Z" fill="#FFFFFF" p-id="29652"></path><path d="M719.23 638.73l46.69 108.1c-8.7 4.47-17.73 8.74-27.08 12.77-19.15 8.25-39.27 15.38-60.15 21.35-2.35-18.03-18.67-34.33-46.57-46.29C604.04 722.63 566.89 716 527.5 716s-76.54 6.63-104.62 18.66C392.65 747.62 376 765.67 376 785.5c0 0.97 0.18 1.9 0.5 2.76-31.08-7.11-60.78-16.68-88.45-28.6-8.79-3.78-17.28-7.77-25.49-11.94l44.25-109.1c4.2-9.88 9.61-18.98 16.02-27.17 0.59-0.53 1.12-1.14 1.55-1.86 0.01-0.02 0.06-0.1 0.12-0.22 22.41-27.35 56.18-43.87 92.78-43.87H455V580c0 39.7 32.3 72 72 72h29c39.7 0 72-32.3 72-72v-12.94c40.29 6.52 74.93 33.19 91.23 71.67zM157.55 330.25l55.11 106.25c-3.27-0.41-6.53-1.04-9.77-1.91-18.75-5.02-34.42-17.04-44.12-33.85-9.71-16.81-12.29-36.4-7.26-55.15a73.197 73.197 0 0 1 6.04-15.34z" fill="#B2E8DB" p-id="29653"></path><path d="M518.59 549.5H417.28c-29.36 0-57.11 9.38-79.83 25.85 6.65-27.93 4.75-57.5-5.7-84.97l-26.9-70.68c-0.1-0.25-0.21-0.49-0.33-0.73l21.63-12.49c3.83-2.21 5.14-7.1 2.93-10.92a7.998 7.998 0 0 0-10.93-2.93l-60.12 34.7a73.038 73.038 0 0 1-7.17 3.63l-66.32-128.99c0.27-0.16 0.54-0.34 0.83-0.5l99.21-57.28c12.44-7.18 26.93-9.09 40.8-5.37 13.87 3.71 25.47 12.61 32.65 25.05l49.69 86.06 79.8 155.2 0.09 0.18c0.32 0.59 7.96 14.5 18.37 28.77 4.61 6.32 8.8 11.36 12.61 15.42z m-209.09-240c0-13.23-10.77-24-24-24s-24 10.77-24 24 10.77 24 24 24 24-10.77 24-24z" fill="#B2E8DB" p-id="29654"></path><path d="M612 566v14c0 30.88-25.12 56-56 56h-29c-30.88 0-56-25.12-56-56v-14h141zM171.58 311.76l63.78 124.04c-1.55 0.3-3.1 0.55-4.66 0.74L167.92 315.5c1.17-1.29 2.39-2.53 3.66-3.74zM558.96 549.5h-14.91c-10.78-3.82-29.73-28.75-42.35-51.78l-79.84-155.28c-0.06-0.12-0.13-0.23-0.19-0.34l-49.78-86.23c-9.32-16.14-24.37-27.69-42.37-32.51-17.31-4.64-35.35-2.51-51.06 5.94 16.54-14.57 39.57-29.73 63.85-29.73 0.42 0 0.86 0 1.28 0.01 21.85 0.49 41.78 13.78 59.22 39.52 6.04 8.92 11.34 18.9 15.74 29.66 10.89 26.64 39.56 95.56 70.58 160.09 34.18 71.13 55.64 104.65 69.83 120.65z" fill="#00AA90" p-id="29655"></path><path d="M892.19 646.16c3.72 2.38 4.8 7.33 2.42 11.05-30.45 47.58-82.13 88.07-149.44 117.08-68.38 29.48-148.54 45.06-231.8 45.06-83.19 0-163.3-15.56-231.65-44.99-67.27-28.97-118.95-69.4-149.45-116.93-2.39-3.72-1.31-8.67 2.41-11.05a8.003 8.003 0 0 1 11.06 2.41c22.52 35.1 57.58 66.22 102.62 91.37l43.65-107.61c0.02-0.03 0.03-0.07 0.05-0.11a136.132 136.132 0 0 1 19.13-32.04c1.03-1.91 3.33-6.43 5.83-12.95 11.16-29.21 11.08-61.66-0.23-91.38l-26.27-69.02-24.49 14.14c-42.34 24.45-96.67 9.89-121.12-32.45-11.84-20.52-14.99-44.41-8.86-67.29 6.13-22.88 20.8-42 41.32-53.84l61.7-35.62c-0.25-1.98 0.23-4.05 1.51-5.77 1.95-2.61 48.2-63.84 103.37-62.64 27.33 0.61 51.59 16.27 72.1 46.54 6.66 9.84 12.49 20.8 17.31 32.59 10.83 26.5 39.36 95.07 70.19 159.21 17.46 36.33 32.92 65.51 45.95 86.73 20.26 32.99 29.7 38.75 32.82 39.69 0.86 0.26 1.64 0.66 2.33 1.16h24.07c3.96 0 7.88 0.19 11.77 0.52 0.19 0.02 0.38 0.03 0.56 0.06a135.633 135.633 0 0 1 67.24 25.08c2.56-1.27 22.45-11.33 42.1-26.87 18.5-14.62 40.65-37.25 41.11-61.94 0.08-4.42 3.75-7.94 8.15-7.85 4.42 0.08 7.93 3.73 7.85 8.15-0.92 49.55-64.53 88.07-85.79 99.57a136.083 136.083 0 0 1 32.23 46.22l46.12 106.78c44.32-25.04 78.84-55.89 101.08-90.63 2.38-3.73 7.32-4.81 11.05-2.43zM765.92 746.83l-46.69-108.1c-16.3-38.48-50.94-65.15-91.23-71.67V580c0 39.7-32.3 72-72 72h-29c-39.7 0-72-32.3-72-72v-14.5h-37.72c-36.6 0-70.37 16.52-92.78 43.87-0.06 0.12-0.11 0.2-0.12 0.22-0.43 0.72-0.96 1.33-1.55 1.86a120.57 120.57 0 0 0-16.02 27.17l-44.25 109.1c8.21 4.17 16.7 8.16 25.49 11.94 27.67 11.92 57.37 21.49 88.45 28.6-0.32-0.86-0.5-1.79-0.5-2.76 0-19.83 16.65-37.88 46.88-50.84C450.96 722.63 488.11 716 527.5 716s76.54 6.63 104.62 18.66c27.9 11.96 44.22 28.26 46.57 46.29 20.88-5.97 41-13.1 60.15-21.35 9.35-4.03 18.38-8.3 27.08-12.77z m-102.93 38.35c-0.22-12.73-13.74-25.77-37.17-35.81-26.13-11.2-61.05-17.37-98.32-17.37s-72.19 6.17-98.32 17.37C405.55 759.49 392 772.66 392 785.5c0 2.19-0.88 4.17-2.31 5.62 39.56 8.07 81.19 12.23 123.68 12.23 51.89 0 102.5-6.21 149.62-18.17zM612 580v-14H471v14c0 30.88 25.12 56 56 56h29c30.88 0 56-25.12 56-56z m-67.95-30.5h14.91c-14.19-16-35.65-49.52-69.83-120.65-31.02-64.53-59.69-133.45-70.58-160.09-4.4-10.76-9.7-20.74-15.74-29.66-17.44-25.74-37.37-39.03-59.22-39.52-0.42-0.01-0.86-0.01-1.28-0.01-24.28 0-47.31 15.16-63.85 29.73 15.71-8.45 33.75-10.58 51.06-5.94 18 4.82 33.05 16.37 42.37 32.51l49.78 86.23c0.06 0.11 0.13 0.22 0.19 0.34l79.84 155.28c12.62 23.03 31.57 47.96 42.35 51.78z m-126.77 0h101.31c-3.81-4.06-8-9.1-12.61-15.42-10.41-14.27-18.05-28.18-18.37-28.77l-0.09-0.18-79.8-155.2-49.69-86.06c-7.18-12.44-18.78-21.34-32.65-25.05-13.87-3.72-28.36-1.81-40.8 5.37l-99.21 57.28c-0.29 0.16-0.56 0.34-0.83 0.5l66.32 128.99c2.44-1.08 4.83-2.27 7.17-3.63l60.12-34.7c3.83-2.21 8.72-0.9 10.93 2.93 2.21 3.82 0.9 8.71-2.93 10.92l-21.63 12.49c0.12 0.24 0.23 0.48 0.33 0.73l26.9 70.68c10.45 27.47 12.35 57.04 5.7 84.97 22.72-16.47 50.47-25.85 79.83-25.85zM235.36 435.8l-63.78-124.04a71.656 71.656 0 0 0-3.66 3.74l62.78 121.04c1.56-0.19 3.11-0.44 4.66-0.74z m-22.7 0.7l-55.11-106.25c-2.55 4.82-4.6 9.95-6.04 15.34-5.03 18.75-2.45 38.34 7.26 55.15 9.7 16.81 25.37 28.83 44.12 33.85 3.24 0.87 6.5 1.5 9.77 1.91z" p-id="29656"></path><path d="M285.5 285.5c13.23 0 24 10.77 24 24s-10.77 24-24 24-24-10.77-24-24 10.77-24 24-24z m8 24c0-4.41-3.59-8-8-8s-8 3.59-8 8 3.59 8 8 8 8-3.59 8-8z" p-id="29657"></path></svg>
